<svg width="684.47" height="314.94" enable-background="new 0 0 1000 1000" version="1.1" viewBox="0 0 684.47 314.94" xml:space="preserve" xmlns="http://www.w3.org/2000/svg"><g>


<path d="m228.91 69.167c35.169-15.61 93.349-14.194 129.11 1.4e-5l191.46 75.984c35.764 14.194 35.764 37.047 4e-5 51.241l-191.46 75.984c-35.764 14.194-93.944 15.61-129.11-1e-5 0 0-228.91-65.686-228.91-101.6 9.2948e-6 -35.918 228.91-101.6 228.91-101.6z" style="paint-order:normal"/><path d="m515.51 170.25 168.96-97.55s-41.314 58.052-41.314 97.55 41.314 97.55 41.314 97.55z" style="paint-order:normal"/><path d="m227.13 77.851 141.57-77.851-5.1607 171.68z" style="paint-order:normal"/><path transform="rotate(1.9554 11519 47353)" d="m-1364.2 624.04 168.96-97.55v195.1z" style="paint-order:normal"/></g><circle cx="142.98" cy="145.89" r="24.364" fill="#fff" style="paint-order:normal"/></svg>
